<?xml version="1.0" standalone="no"?>
<!DOCTYPE svg PUBLIC "-//W3C//DTD SVG 20010904//EN"
 "http://www.w3.org/TR/2001/REC-SVG-20010904/DTD/svg10.dtd">
<svg version="1.0" xmlns="http://www.w3.org/2000/svg"
 width="330.000000pt" height="330.000000pt" viewBox="0 0 330.000000 330.000000"
 preserveAspectRatio="xMidYMid meet">
<metadata>
Created by potrace 1.11, written by Peter Selinger 2001-2013
</metadata>
<g transform="translate(0.000000,330.000000) scale(0.100000,-0.100000)"
fill="#000000" stroke="none">
<path d="M1438 3285 c-384 -53 -718 -221 -984 -497 -415 -431 -561 -1090 -369
-1663 217 -645 822 -1093 1516 -1122 529 -22 1083 252 1391 688 186 264 290
571 305 904 21 476 -201 986 -570 1306 -186 161 -427 288 -656 345 -208 52
-434 66 -633 39z m395 -80 c9 -4 20 -17 23 -29 3 -12 13 -27 23 -33 16 -10 18
-9 13 9 -6 23 6 20 41 -11 10 -8 25 -16 33 -17 15 -2 11 9 -15 40 -15 18 -14
19 24 12 135 -25 347 -118 503 -223 291 -196 565 -574 660 -911 11 -40 16 -70
11 -67 -5 4 -9 -1 -9 -10 0 -9 4 -13 10 -10 5 3 10 2 10 -4 0 -5 -5 -13 -10
-16 -6 -4 -8 -9 -6 -13 2 -4 7 -65 11 -137 7 -138 -11 -323 -39 -403 -8 -22
-12 -43 -9 -46 6 -5 -24 -109 -41 -141 -10 -19 -11 -24 -14 -53 -1 -7 -7 -10
-13 -7 -6 4 -9 1 -8 -6 4 -20 -11 -59 -22 -59 -6 0 -8 -4 -4 -9 6 -11 -15 -61
-27 -61 -4 0 -7 -3 -6 -7 2 -5 -8 -26 -21 -48 -14 -22 -30 -50 -37 -62 -31
-55 -151 -198 -234 -276 -114 -108 -236 -196 -369 -264 -119 -61 -113 -61
-248 3 -271 126 -462 317 -501 499 -21 97 -22 122 -11 201 32 232 136 358 479
576 121 78 121 78 96 -52 -19 -100 -69 -225 -135 -335 -66 -108 -72 -125 -72
-201 -1 -47 6 -77 23 -116 24 -51 120 -168 139 -168 5 0 -11 30 -36 66 -59 88
-79 151 -72 224 10 112 66 185 312 400 105 92 201 179 214 194 37 40 45 33 38
-38 -8 -85 -45 -173 -109 -260 -161 -219 -177 -368 -54 -492 44 -43 62 -54
109 -64 43 -9 65 -8 99 2 l43 12 -60 6 c-97 9 -149 46 -191 135 -43 91 -26
184 55 304 48 70 117 141 278 285 67 59 124 114 127 122 3 8 11 14 17 14 9 0
10 -19 5 -69 -7 -80 -19 -116 -76 -233 -67 -139 -64 -221 11 -303 47 -51 87
-70 133 -61 30 6 37 14 69 84 73 159 118 360 131 575 4 72 -5 101 -19 58 -12
-39 -65 -100 -141 -162 -46 -37 -75 -55 -70 -44 15 35 19 160 7 183 -10 18 -6
29 24 75 58 88 78 156 83 287 5 155 -23 298 -75 385 -123 203 -341 399 -571
515 -95 47 -268 107 -335 116 -35 5 -44 10 -40 22 4 9 2 13 -4 9 -6 -4 -13 -1
-16 5 -3 7 -2 -6 0 -28 8 -68 -11 -107 -92 -182 -40 -37 -93 -79 -117 -92
l-45 -23 42 -91 c49 -105 65 -163 65 -238 0 -137 -85 -335 -262 -611 -115
-179 -149 -304 -149 -552 0 -223 29 -374 102 -520 100 -203 298 -362 569 -456
l94 -33 -104 -34 c-255 -81 -618 -81 -849 0 -74 26 -88 44 -170 213 -108 220
-155 416 -155 635 1 179 23 283 92 424 27 53 42 96 36 96 -19 0 -125 -83 -172
-133 -199 -218 -231 -494 -88 -764 62 -115 142 -219 262 -341 105 -106 126
-131 78 -93 -15 12 -34 21 -44 21 -9 0 -62 25 -117 55 -56 30 -103 55 -107 55
-12 0 -163 112 -216 160 -15 14 -41 36 -59 49 -70 54 -121 214 -121 381 0 181
50 321 154 437 61 67 121 114 331 256 l139 95 30 -15 c37 -19 149 -12 198 12
107 54 117 125 19 125 -83 0 -83 10 2 99 115 120 164 191 177 258 14 66 7 132
-17 169 -15 24 -20 25 -72 19 -73 -8 -159 -30 -216 -55 -55 -24 -147 -109
-182 -167 -29 -50 -38 -53 -47 -18 -11 42 12 104 57 152 49 53 88 74 217 117
90 30 197 82 187 92 -2 2 -21 -4 -43 -13 -30 -13 -79 -19 -214 -23 -198 -6
-236 -17 -305 -85 -33 -34 -50 -63 -92 -165 -11 -24 -11 -24 -34 25 -33 73
-32 146 4 208 32 53 116 121 202 162 51 24 55 28 55 61 0 67 38 109 142 156
93 42 297 68 488 63 139 -4 186 6 239 52 34 29 41 41 41 71 0 26 -3 33 -9 23
-7 -11 -29 -13 -108 -8 -178 12 -384 -16 -571 -79 -376 -124 -708 -408 -879
-749 -170 -338 -203 -751 -91 -1129 38 -130 116 -291 191 -396 33 -47 53 -79
43 -71 -9 8 -37 41 -61 75 -25 33 -49 66 -53 71 -21 28 -102 168 -131 230 -51
107 -100 267 -123 400 -28 167 -22 430 15 585 104 437 372 786 768 999 149 80
356 146 531 170 78 11 381 7 411 -4z m395 -230 c144 -63 235 -120 288 -181
160 -185 237 -357 236 -534 -1 -195 -83 -367 -270 -562 -91 -95 -359 -330
-350 -307 30 78 50 169 55 247 l6 93 63 49 c117 94 210 203 258 304 54 112 69
176 69 286 -1 176 -67 324 -203 460 -66 67 -105 96 -175 133 -105 54 -91 62
23 12z m-1343 -221 c14 -15 25 -31 25 -35 0 -13 -96 -59 -121 -59 -19 0 -21 4
-16 36 14 82 65 109 112 58z m1869 -133 c162 -183 231 -407 194 -628 -31 -182
-88 -263 -340 -484 -18 -15 -34 -26 -36 -24 -2 2 1 20 7 42 13 46 14 153 2
172 -6 10 7 33 44 80 113 139 175 309 175 475 0 153 -47 292 -145 432 -25 36
-45 68 -45 71 0 9 92 -77 144 -136z m-1726 -156 c2 -22 -4 -37 -22 -54 l-25
-24 -20 24 c-45 54 -30 93 34 87 25 -3 30 -8 33 -33z m61 -337 c-12 -35 -19
-44 -41 -46 -33 -4 -32 -6 -13 48 8 23 15 61 15 83 0 24 7 48 18 60 16 19 17
18 26 -41 6 -44 5 -72 -5 -104z m-425 107 c18 -14 66 -32 113 -43 118 -28 213
-90 213 -141 0 -14 7 -16 35 -13 33 4 41 -1 108 -68 81 -81 112 -100 162 -102
19 -1 35 -4 35 -8 0 -15 -81 -50 -131 -56 -89 -10 -120 9 -167 103 -59 117
-73 125 -227 142 -109 13 -139 25 -184 76 -35 40 -41 87 -14 117 20 23 18 23
57 -7z m256 -263 c14 -11 26 -26 28 -34 5 -25 -44 -63 -119 -93 -60 -23 -73
-33 -85 -61 -8 -18 -14 -43 -14 -56 0 -20 -4 -18 -41 17 -73 71 -87 126 -46
185 38 57 79 72 172 66 56 -4 88 -11 105 -24z"/>
<path d="M1200 2787 l-105 -62 63 -3 c118 -6 218 44 210 102 -6 41 -55 30
-168 -37z"/>
</g>
</svg>
